<mxfile host="app.diagrams.net" agent="Mozilla/5.0 (Windows NT 10.0; Win64; x64) AppleWebKit/537.36 (KHTML, like Gecko) Chrome/139.0.0.0 Safari/537.36" version="28.1.1">
  <diagram id="schema" name="Cinema Normalized Schema Crowfoot">
    <mxGraphModel grid="1" page="1" gridSize="10" guides="1" tooltips="1" connect="1" arrows="1" fold="1" pageScale="1" pageWidth="827" pageHeight="1169" math="0" shadow="0">
      <root>
        <mxCell id="0" />
        <mxCell id="1" parent="0" />
        <mxCell id="4lrFbegZ2ahOl5D23bYF-11" value="" style="group" connectable="0" vertex="1" parent="1">
          <mxGeometry x="70" y="60" width="720" height="70" as="geometry" />
        </mxCell>
        <mxCell id="4lrFbegZ2ahOl5D23bYF-9" value="" style="group" connectable="0" vertex="1" parent="4lrFbegZ2ahOl5D23bYF-11">
          <mxGeometry y="30" width="720" height="40" as="geometry" />
        </mxCell>
        <mxCell id="4lrFbegZ2ahOl5D23bYF-4" value="" style="group" connectable="0" vertex="1" parent="4lrFbegZ2ahOl5D23bYF-9">
          <mxGeometry width="360" height="40" as="geometry" />
        </mxCell>
        <mxCell id="4lrFbegZ2ahOl5D23bYF-1" value="&lt;u&gt;user_id&lt;/u&gt;" style="rounded=0;whiteSpace=wrap;html=1;" vertex="1" parent="4lrFbegZ2ahOl5D23bYF-4">
          <mxGeometry width="120" height="40" as="geometry" />
        </mxCell>
        <mxCell id="4lrFbegZ2ahOl5D23bYF-2" value="first_name" style="rounded=0;whiteSpace=wrap;html=1;" vertex="1" parent="4lrFbegZ2ahOl5D23bYF-4">
          <mxGeometry x="120" width="120" height="40" as="geometry" />
        </mxCell>
        <mxCell id="4lrFbegZ2ahOl5D23bYF-3" value="last_name" style="rounded=0;whiteSpace=wrap;html=1;" vertex="1" parent="4lrFbegZ2ahOl5D23bYF-4">
          <mxGeometry x="240" width="120" height="40" as="geometry" />
        </mxCell>
        <mxCell id="4lrFbegZ2ahOl5D23bYF-5" value="" style="group" connectable="0" vertex="1" parent="4lrFbegZ2ahOl5D23bYF-9">
          <mxGeometry x="360" width="360" height="40" as="geometry" />
        </mxCell>
        <mxCell id="4lrFbegZ2ahOl5D23bYF-6" value="email" style="rounded=0;whiteSpace=wrap;html=1;" vertex="1" parent="4lrFbegZ2ahOl5D23bYF-5">
          <mxGeometry width="120" height="40" as="geometry" />
        </mxCell>
        <mxCell id="4lrFbegZ2ahOl5D23bYF-7" value="phone" style="rounded=0;whiteSpace=wrap;html=1;" vertex="1" parent="4lrFbegZ2ahOl5D23bYF-5">
          <mxGeometry x="120" width="120" height="40" as="geometry" />
        </mxCell>
        <mxCell id="4lrFbegZ2ahOl5D23bYF-8" value="password" style="rounded=0;whiteSpace=wrap;html=1;" vertex="1" parent="4lrFbegZ2ahOl5D23bYF-5">
          <mxGeometry x="240" width="120" height="40" as="geometry" />
        </mxCell>
        <mxCell id="4lrFbegZ2ahOl5D23bYF-10" value="User" style="rounded=0;whiteSpace=wrap;html=1;align=left;" vertex="1" parent="4lrFbegZ2ahOl5D23bYF-11">
          <mxGeometry width="720" height="30" as="geometry" />
        </mxCell>
        <mxCell id="4lrFbegZ2ahOl5D23bYF-12" value="" style="group" connectable="0" vertex="1" parent="1">
          <mxGeometry x="70" y="640" width="720" height="70" as="geometry" />
        </mxCell>
        <mxCell id="4lrFbegZ2ahOl5D23bYF-13" value="" style="group" connectable="0" vertex="1" parent="4lrFbegZ2ahOl5D23bYF-12">
          <mxGeometry y="30" width="720" height="40" as="geometry" />
        </mxCell>
        <mxCell id="4lrFbegZ2ahOl5D23bYF-14" value="" style="group" connectable="0" vertex="1" parent="4lrFbegZ2ahOl5D23bYF-13">
          <mxGeometry width="360" height="40" as="geometry" />
        </mxCell>
        <mxCell id="4lrFbegZ2ahOl5D23bYF-15" value="&lt;u&gt;movie_name&lt;/u&gt;" style="rounded=0;whiteSpace=wrap;html=1;" vertex="1" parent="4lrFbegZ2ahOl5D23bYF-14">
          <mxGeometry width="120" height="40" as="geometry" />
        </mxCell>
        <mxCell id="4lrFbegZ2ahOl5D23bYF-16" value="genre" style="rounded=0;whiteSpace=wrap;html=1;" vertex="1" parent="4lrFbegZ2ahOl5D23bYF-14">
          <mxGeometry x="120" width="120" height="40" as="geometry" />
        </mxCell>
        <mxCell id="4lrFbegZ2ahOl5D23bYF-17" value="duration" style="rounded=0;whiteSpace=wrap;html=1;" vertex="1" parent="4lrFbegZ2ahOl5D23bYF-14">
          <mxGeometry x="240" width="120" height="40" as="geometry" />
        </mxCell>
        <mxCell id="4lrFbegZ2ahOl5D23bYF-18" value="" style="group" connectable="0" vertex="1" parent="4lrFbegZ2ahOl5D23bYF-13">
          <mxGeometry x="360" width="360" height="40" as="geometry" />
        </mxCell>
        <mxCell id="4lrFbegZ2ahOl5D23bYF-19" value="release_date" style="rounded=0;whiteSpace=wrap;html=1;" vertex="1" parent="4lrFbegZ2ahOl5D23bYF-18">
          <mxGeometry width="120" height="40" as="geometry" />
        </mxCell>
        <mxCell id="4lrFbegZ2ahOl5D23bYF-20" value="details" style="rounded=0;whiteSpace=wrap;html=1;" vertex="1" parent="4lrFbegZ2ahOl5D23bYF-18">
          <mxGeometry x="120" width="120" height="40" as="geometry" />
        </mxCell>
        <mxCell id="4lrFbegZ2ahOl5D23bYF-21" value="user_id" style="rounded=0;whiteSpace=wrap;html=1;" vertex="1" parent="4lrFbegZ2ahOl5D23bYF-18">
          <mxGeometry x="240" width="120" height="40" as="geometry" />
        </mxCell>
        <mxCell id="4lrFbegZ2ahOl5D23bYF-22" value="Movie" style="rounded=0;whiteSpace=wrap;html=1;align=left;" vertex="1" parent="4lrFbegZ2ahOl5D23bYF-12">
          <mxGeometry width="720" height="30" as="geometry" />
        </mxCell>
        <mxCell id="4lrFbegZ2ahOl5D23bYF-23" value="" style="group" connectable="0" vertex="1" parent="1">
          <mxGeometry x="70" y="220" width="720" height="70" as="geometry" />
        </mxCell>
        <mxCell id="4lrFbegZ2ahOl5D23bYF-24" value="" style="group" connectable="0" vertex="1" parent="4lrFbegZ2ahOl5D23bYF-23">
          <mxGeometry y="30" width="720" height="40" as="geometry" />
        </mxCell>
        <mxCell id="4lrFbegZ2ahOl5D23bYF-25" value="" style="group" connectable="0" vertex="1" parent="4lrFbegZ2ahOl5D23bYF-24">
          <mxGeometry width="360" height="40" as="geometry" />
        </mxCell>
        <mxCell id="4lrFbegZ2ahOl5D23bYF-26" value="&lt;u&gt;user_id&lt;/u&gt;" style="rounded=0;whiteSpace=wrap;html=1;" vertex="1" parent="4lrFbegZ2ahOl5D23bYF-25">
          <mxGeometry width="120" height="40" as="geometry" />
        </mxCell>
        <mxCell id="4lrFbegZ2ahOl5D23bYF-27" value="Customer_type" style="rounded=0;whiteSpace=wrap;html=1;" vertex="1" parent="4lrFbegZ2ahOl5D23bYF-25">
          <mxGeometry x="120" width="120" height="40" as="geometry" />
        </mxCell>
        <mxCell id="4lrFbegZ2ahOl5D23bYF-33" value="Cutomer" style="rounded=0;whiteSpace=wrap;html=1;align=left;" vertex="1" parent="4lrFbegZ2ahOl5D23bYF-23">
          <mxGeometry width="240" height="30" as="geometry" />
        </mxCell>
        <mxCell id="4lrFbegZ2ahOl5D23bYF-34" value="" style="group" connectable="0" vertex="1" parent="1">
          <mxGeometry x="70" y="330" width="720" height="70" as="geometry" />
        </mxCell>
        <mxCell id="4lrFbegZ2ahOl5D23bYF-35" value="" style="group" connectable="0" vertex="1" parent="4lrFbegZ2ahOl5D23bYF-34">
          <mxGeometry y="30" width="720" height="40" as="geometry" />
        </mxCell>
        <mxCell id="4lrFbegZ2ahOl5D23bYF-36" value="" style="group" connectable="0" vertex="1" parent="4lrFbegZ2ahOl5D23bYF-35">
          <mxGeometry width="360" height="40" as="geometry" />
        </mxCell>
        <mxCell id="4lrFbegZ2ahOl5D23bYF-37" value="&lt;u&gt;user_id&lt;/u&gt;" style="rounded=0;whiteSpace=wrap;html=1;" vertex="1" parent="4lrFbegZ2ahOl5D23bYF-36">
          <mxGeometry width="120" height="40" as="geometry" />
        </mxCell>
        <mxCell id="4lrFbegZ2ahOl5D23bYF-38" value="joining_date" style="rounded=0;whiteSpace=wrap;html=1;" vertex="1" parent="4lrFbegZ2ahOl5D23bYF-36">
          <mxGeometry x="120" width="120" height="40" as="geometry" />
        </mxCell>
        <mxCell id="4lrFbegZ2ahOl5D23bYF-39" value="salary" style="rounded=0;whiteSpace=wrap;html=1;" vertex="1" parent="4lrFbegZ2ahOl5D23bYF-36">
          <mxGeometry x="240" width="120" height="40" as="geometry" />
        </mxCell>
        <mxCell id="4lrFbegZ2ahOl5D23bYF-40" value="" style="group" connectable="0" vertex="1" parent="4lrFbegZ2ahOl5D23bYF-35">
          <mxGeometry x="360" width="360" height="40" as="geometry" />
        </mxCell>
        <mxCell id="4lrFbegZ2ahOl5D23bYF-41" value="address" style="rounded=0;whiteSpace=wrap;html=1;" vertex="1" parent="4lrFbegZ2ahOl5D23bYF-40">
          <mxGeometry width="120" height="40" as="geometry" />
        </mxCell>
        <mxCell id="4lrFbegZ2ahOl5D23bYF-44" value="Admin" style="rounded=0;whiteSpace=wrap;html=1;align=left;" vertex="1" parent="4lrFbegZ2ahOl5D23bYF-34">
          <mxGeometry width="480" height="30" as="geometry" />
        </mxCell>
        <mxCell id="4lrFbegZ2ahOl5D23bYF-59" style="edgeStyle=orthogonalEdgeStyle;rounded=0;orthogonalLoop=1;jettySize=auto;html=1;entryX=0.75;entryY=1;entryDx=0;entryDy=0;fillColor=#fa6800;strokeColor=#C73500;" edge="1" parent="1" source="4lrFbegZ2ahOl5D23bYF-21" target="4lrFbegZ2ahOl5D23bYF-37">
          <mxGeometry relative="1" as="geometry">
            <Array as="points">
              <mxPoint x="810" y="700" />
              <mxPoint x="810" y="460" />
              <mxPoint x="160" y="460" />
            </Array>
          </mxGeometry>
        </mxCell>
        <mxCell id="4lrFbegZ2ahOl5D23bYF-60" value="" style="group" connectable="0" vertex="1" parent="1">
          <mxGeometry x="70" y="500" width="720" height="70" as="geometry" />
        </mxCell>
        <mxCell id="4lrFbegZ2ahOl5D23bYF-61" value="" style="group" connectable="0" vertex="1" parent="4lrFbegZ2ahOl5D23bYF-60">
          <mxGeometry y="30" width="720" height="40" as="geometry" />
        </mxCell>
        <mxCell id="4lrFbegZ2ahOl5D23bYF-62" value="" style="group" connectable="0" vertex="1" parent="4lrFbegZ2ahOl5D23bYF-61">
          <mxGeometry width="360" height="40" as="geometry" />
        </mxCell>
        <mxCell id="4lrFbegZ2ahOl5D23bYF-63" value="&lt;u&gt;hall_id&lt;/u&gt;" style="rounded=0;whiteSpace=wrap;html=1;" vertex="1" parent="4lrFbegZ2ahOl5D23bYF-62">
          <mxGeometry width="120" height="40" as="geometry" />
        </mxCell>
        <mxCell id="4lrFbegZ2ahOl5D23bYF-64" value="hall_name" style="rounded=0;whiteSpace=wrap;html=1;" vertex="1" parent="4lrFbegZ2ahOl5D23bYF-62">
          <mxGeometry x="120" width="120" height="40" as="geometry" />
        </mxCell>
        <mxCell id="4lrFbegZ2ahOl5D23bYF-65" value="user_id" style="rounded=0;whiteSpace=wrap;html=1;" vertex="1" parent="4lrFbegZ2ahOl5D23bYF-62">
          <mxGeometry x="240" width="120" height="40" as="geometry" />
        </mxCell>
        <mxCell id="4lrFbegZ2ahOl5D23bYF-68" value="Hall" style="rounded=0;whiteSpace=wrap;html=1;align=left;" vertex="1" parent="4lrFbegZ2ahOl5D23bYF-60">
          <mxGeometry width="360" height="30" as="geometry" />
        </mxCell>
        <mxCell id="4lrFbegZ2ahOl5D23bYF-71" value="" style="group" connectable="0" vertex="1" parent="1">
          <mxGeometry x="70" y="780" width="840" height="70" as="geometry" />
        </mxCell>
        <mxCell id="4lrFbegZ2ahOl5D23bYF-72" value="" style="group" connectable="0" vertex="1" parent="4lrFbegZ2ahOl5D23bYF-71">
          <mxGeometry y="30" width="720" height="40" as="geometry" />
        </mxCell>
        <mxCell id="4lrFbegZ2ahOl5D23bYF-73" value="" style="group" connectable="0" vertex="1" parent="4lrFbegZ2ahOl5D23bYF-72">
          <mxGeometry width="360" height="40" as="geometry" />
        </mxCell>
        <mxCell id="4lrFbegZ2ahOl5D23bYF-74" value="&lt;u&gt;Show_id&lt;/u&gt;" style="rounded=0;whiteSpace=wrap;html=1;" vertex="1" parent="4lrFbegZ2ahOl5D23bYF-73">
          <mxGeometry width="120" height="40" as="geometry" />
        </mxCell>
        <mxCell id="4lrFbegZ2ahOl5D23bYF-75" value="date" style="rounded=0;whiteSpace=wrap;html=1;" vertex="1" parent="4lrFbegZ2ahOl5D23bYF-73">
          <mxGeometry x="120" width="120" height="40" as="geometry" />
        </mxCell>
        <mxCell id="4lrFbegZ2ahOl5D23bYF-76" value="start" style="rounded=0;whiteSpace=wrap;html=1;" vertex="1" parent="4lrFbegZ2ahOl5D23bYF-73">
          <mxGeometry x="240" width="120" height="40" as="geometry" />
        </mxCell>
        <mxCell id="4lrFbegZ2ahOl5D23bYF-77" value="" style="group" connectable="0" vertex="1" parent="4lrFbegZ2ahOl5D23bYF-72">
          <mxGeometry x="360" width="360" height="40" as="geometry" />
        </mxCell>
        <mxCell id="4lrFbegZ2ahOl5D23bYF-78" value="end" style="rounded=0;whiteSpace=wrap;html=1;" vertex="1" parent="4lrFbegZ2ahOl5D23bYF-77">
          <mxGeometry width="120" height="40" as="geometry" />
        </mxCell>
        <mxCell id="4lrFbegZ2ahOl5D23bYF-79" value="movie_name" style="rounded=0;whiteSpace=wrap;html=1;" vertex="1" parent="4lrFbegZ2ahOl5D23bYF-77">
          <mxGeometry x="120" width="120" height="40" as="geometry" />
        </mxCell>
        <mxCell id="4lrFbegZ2ahOl5D23bYF-80" value="hall_id" style="rounded=0;whiteSpace=wrap;html=1;" vertex="1" parent="4lrFbegZ2ahOl5D23bYF-77">
          <mxGeometry x="240" width="120" height="40" as="geometry" />
        </mxCell>
        <mxCell id="4lrFbegZ2ahOl5D23bYF-81" value="Show" style="rounded=0;whiteSpace=wrap;html=1;align=left;" vertex="1" parent="4lrFbegZ2ahOl5D23bYF-71">
          <mxGeometry width="840" height="30" as="geometry" />
        </mxCell>
        <mxCell id="4lrFbegZ2ahOl5D23bYF-82" value="user_id" style="rounded=0;whiteSpace=wrap;html=1;" vertex="1" parent="4lrFbegZ2ahOl5D23bYF-71">
          <mxGeometry x="720" y="30" width="120" height="40" as="geometry" />
        </mxCell>
        <mxCell id="4lrFbegZ2ahOl5D23bYF-83" style="edgeStyle=orthogonalEdgeStyle;rounded=0;orthogonalLoop=1;jettySize=auto;html=1;entryX=0.867;entryY=0.975;entryDx=0;entryDy=0;entryPerimeter=0;exitX=1;exitY=0.5;exitDx=0;exitDy=0;fillColor=#a20025;strokeColor=#6F0000;" edge="1" parent="1" source="4lrFbegZ2ahOl5D23bYF-82" target="4lrFbegZ2ahOl5D23bYF-37">
          <mxGeometry relative="1" as="geometry">
            <mxPoint x="945" y="850" as="sourcePoint" />
            <mxPoint x="210" y="417" as="targetPoint" />
            <Array as="points">
              <mxPoint x="940" y="830" />
              <mxPoint x="940" y="440" />
              <mxPoint x="174" y="440" />
            </Array>
          </mxGeometry>
        </mxCell>
        <mxCell id="4lrFbegZ2ahOl5D23bYF-89" style="edgeStyle=orthogonalEdgeStyle;rounded=0;orthogonalLoop=1;jettySize=auto;html=1;entryX=0.75;entryY=1;entryDx=0;entryDy=0;fillColor=#e3c800;strokeColor=#B09500;" edge="1" parent="1" source="4lrFbegZ2ahOl5D23bYF-80" target="4lrFbegZ2ahOl5D23bYF-63">
          <mxGeometry relative="1" as="geometry">
            <mxPoint x="730" y="890" as="targetPoint" />
            <Array as="points">
              <mxPoint x="730" y="900" />
              <mxPoint x="30" y="900" />
              <mxPoint x="30" y="600" />
              <mxPoint x="160" y="600" />
            </Array>
          </mxGeometry>
        </mxCell>
        <mxCell id="4lrFbegZ2ahOl5D23bYF-90" style="edgeStyle=orthogonalEdgeStyle;rounded=0;orthogonalLoop=1;jettySize=auto;html=1;entryX=0.5;entryY=1;entryDx=0;entryDy=0;fillColor=#bac8d3;strokeColor=#23445d;" edge="1" parent="1" source="4lrFbegZ2ahOl5D23bYF-79" target="4lrFbegZ2ahOl5D23bYF-15">
          <mxGeometry relative="1" as="geometry">
            <Array as="points">
              <mxPoint x="610" y="870" />
              <mxPoint x="50" y="870" />
              <mxPoint x="50" y="730" />
              <mxPoint x="130" y="730" />
            </Array>
          </mxGeometry>
        </mxCell>
        <mxCell id="4lrFbegZ2ahOl5D23bYF-91" value="" style="group" connectable="0" vertex="1" parent="1">
          <mxGeometry x="70" y="950" width="720" height="70" as="geometry" />
        </mxCell>
        <mxCell id="4lrFbegZ2ahOl5D23bYF-92" value="" style="group" connectable="0" vertex="1" parent="4lrFbegZ2ahOl5D23bYF-91">
          <mxGeometry y="30" width="720" height="40" as="geometry" />
        </mxCell>
        <mxCell id="4lrFbegZ2ahOl5D23bYF-93" value="" style="group" connectable="0" vertex="1" parent="4lrFbegZ2ahOl5D23bYF-92">
          <mxGeometry width="360" height="40" as="geometry" />
        </mxCell>
        <mxCell id="4lrFbegZ2ahOl5D23bYF-94" value="&lt;u&gt;Booking_id&lt;/u&gt;" style="rounded=0;whiteSpace=wrap;html=1;" vertex="1" parent="4lrFbegZ2ahOl5D23bYF-93">
          <mxGeometry width="120" height="40" as="geometry" />
        </mxCell>
        <mxCell id="4lrFbegZ2ahOl5D23bYF-95" value="ticket_price" style="rounded=0;whiteSpace=wrap;html=1;" vertex="1" parent="4lrFbegZ2ahOl5D23bYF-93">
          <mxGeometry x="120" width="120" height="40" as="geometry" />
        </mxCell>
        <mxCell id="4lrFbegZ2ahOl5D23bYF-96" value="show_id" style="rounded=0;whiteSpace=wrap;html=1;" vertex="1" parent="4lrFbegZ2ahOl5D23bYF-93">
          <mxGeometry x="240" width="120" height="40" as="geometry" />
        </mxCell>
        <mxCell id="4lrFbegZ2ahOl5D23bYF-97" value="" style="group" connectable="0" vertex="1" parent="4lrFbegZ2ahOl5D23bYF-92">
          <mxGeometry x="360" width="360" height="40" as="geometry" />
        </mxCell>
        <mxCell id="4lrFbegZ2ahOl5D23bYF-98" value="user_id" style="rounded=0;whiteSpace=wrap;html=1;" vertex="1" parent="4lrFbegZ2ahOl5D23bYF-97">
          <mxGeometry width="120" height="40" as="geometry" />
        </mxCell>
        <mxCell id="4lrFbegZ2ahOl5D23bYF-99" value="Booking" style="rounded=0;whiteSpace=wrap;html=1;align=left;" vertex="1" parent="4lrFbegZ2ahOl5D23bYF-91">
          <mxGeometry width="480" height="30" as="geometry" />
        </mxCell>
        <mxCell id="4lrFbegZ2ahOl5D23bYF-100" style="edgeStyle=orthogonalEdgeStyle;rounded=0;orthogonalLoop=1;jettySize=auto;html=1;entryX=0.5;entryY=1;entryDx=0;entryDy=0;fillColor=#e51400;strokeColor=#B20000;" edge="1" parent="1" source="4lrFbegZ2ahOl5D23bYF-96" target="4lrFbegZ2ahOl5D23bYF-74">
          <mxGeometry relative="1" as="geometry">
            <Array as="points">
              <mxPoint x="360" y="1040" />
              <mxPoint x="40" y="1040" />
              <mxPoint x="40" y="920" />
              <mxPoint x="130" y="920" />
            </Array>
          </mxGeometry>
        </mxCell>
        <mxCell id="4lrFbegZ2ahOl5D23bYF-101" style="edgeStyle=orthogonalEdgeStyle;rounded=0;orthogonalLoop=1;jettySize=auto;html=1;entryX=0.75;entryY=1;entryDx=0;entryDy=0;fillColor=#6a00ff;strokeColor=#3700CC;" edge="1" parent="1" source="4lrFbegZ2ahOl5D23bYF-98" target="4lrFbegZ2ahOl5D23bYF-26">
          <mxGeometry relative="1" as="geometry">
            <mxPoint x="70" y="270" as="targetPoint" />
            <Array as="points">
              <mxPoint x="480" y="1060" />
              <mxPoint x="20" y="1060" />
              <mxPoint x="20" y="320" />
              <mxPoint x="160" y="320" />
            </Array>
          </mxGeometry>
        </mxCell>
        <mxCell id="4lrFbegZ2ahOl5D23bYF-102" value="" style="group" connectable="0" vertex="1" parent="1">
          <mxGeometry x="70" y="1099" width="720" height="70" as="geometry" />
        </mxCell>
        <mxCell id="4lrFbegZ2ahOl5D23bYF-103" value="" style="group" connectable="0" vertex="1" parent="4lrFbegZ2ahOl5D23bYF-102">
          <mxGeometry y="30" width="720" height="40" as="geometry" />
        </mxCell>
        <mxCell id="4lrFbegZ2ahOl5D23bYF-104" value="" style="group" connectable="0" vertex="1" parent="4lrFbegZ2ahOl5D23bYF-103">
          <mxGeometry width="360" height="40" as="geometry" />
        </mxCell>
        <mxCell id="4lrFbegZ2ahOl5D23bYF-105" value="&lt;u&gt;transaction_id&lt;/u&gt;" style="rounded=0;whiteSpace=wrap;html=1;" vertex="1" parent="4lrFbegZ2ahOl5D23bYF-104">
          <mxGeometry width="120" height="40" as="geometry" />
        </mxCell>
        <mxCell id="4lrFbegZ2ahOl5D23bYF-106" value="booking_id" style="rounded=0;whiteSpace=wrap;html=1;" vertex="1" parent="4lrFbegZ2ahOl5D23bYF-104">
          <mxGeometry x="120" width="120" height="40" as="geometry" />
        </mxCell>
        <mxCell id="4lrFbegZ2ahOl5D23bYF-107" value="payment_status" style="rounded=0;whiteSpace=wrap;html=1;" vertex="1" parent="4lrFbegZ2ahOl5D23bYF-104">
          <mxGeometry x="240" width="120" height="40" as="geometry" />
        </mxCell>
        <mxCell id="4lrFbegZ2ahOl5D23bYF-110" value="Payment" style="rounded=0;whiteSpace=wrap;html=1;align=left;" vertex="1" parent="4lrFbegZ2ahOl5D23bYF-102">
          <mxGeometry width="360" height="30" as="geometry" />
        </mxCell>
        <mxCell id="4lrFbegZ2ahOl5D23bYF-111" style="edgeStyle=orthogonalEdgeStyle;rounded=0;orthogonalLoop=1;jettySize=auto;html=1;entryX=0.6;entryY=0.975;entryDx=0;entryDy=0;entryPerimeter=0;fillColor=#e3c800;strokeColor=#B09500;" edge="1" parent="1" source="4lrFbegZ2ahOl5D23bYF-106" target="4lrFbegZ2ahOl5D23bYF-94">
          <mxGeometry relative="1" as="geometry">
            <Array as="points">
              <mxPoint x="234" y="1190" />
              <mxPoint x="510" y="1190" />
              <mxPoint x="510" y="1090" />
              <mxPoint x="142" y="1090" />
            </Array>
          </mxGeometry>
        </mxCell>
        <mxCell id="4lrFbegZ2ahOl5D23bYF-112" value="" style="group" connectable="0" vertex="1" parent="1">
          <mxGeometry x="70" y="1220" width="720" height="70" as="geometry" />
        </mxCell>
        <mxCell id="4lrFbegZ2ahOl5D23bYF-113" value="" style="group" connectable="0" vertex="1" parent="4lrFbegZ2ahOl5D23bYF-112">
          <mxGeometry y="30" width="720" height="40" as="geometry" />
        </mxCell>
        <mxCell id="4lrFbegZ2ahOl5D23bYF-114" value="" style="group" connectable="0" vertex="1" parent="4lrFbegZ2ahOl5D23bYF-113">
          <mxGeometry width="360" height="40" as="geometry" />
        </mxCell>
        <mxCell id="4lrFbegZ2ahOl5D23bYF-115" value="&lt;u&gt;transaction_id&lt;/u&gt;" style="rounded=0;whiteSpace=wrap;html=1;" vertex="1" parent="4lrFbegZ2ahOl5D23bYF-114">
          <mxGeometry width="120" height="40" as="geometry" />
        </mxCell>
        <mxCell id="4lrFbegZ2ahOl5D23bYF-116" value="card_no" style="rounded=0;whiteSpace=wrap;html=1;" vertex="1" parent="4lrFbegZ2ahOl5D23bYF-114">
          <mxGeometry x="120" width="120" height="40" as="geometry" />
        </mxCell>
        <mxCell id="4lrFbegZ2ahOl5D23bYF-117" value="bank_name" style="rounded=0;whiteSpace=wrap;html=1;" vertex="1" parent="4lrFbegZ2ahOl5D23bYF-114">
          <mxGeometry x="240" width="120" height="40" as="geometry" />
        </mxCell>
        <mxCell id="4lrFbegZ2ahOl5D23bYF-118" value="" style="group" connectable="0" vertex="1" parent="4lrFbegZ2ahOl5D23bYF-113">
          <mxGeometry x="360" width="360" height="40" as="geometry" />
        </mxCell>
        <mxCell id="4lrFbegZ2ahOl5D23bYF-119" value="card_type" style="rounded=0;whiteSpace=wrap;html=1;" vertex="1" parent="4lrFbegZ2ahOl5D23bYF-118">
          <mxGeometry width="120" height="40" as="geometry" />
        </mxCell>
        <mxCell id="4lrFbegZ2ahOl5D23bYF-120" value="Card" style="rounded=0;whiteSpace=wrap;html=1;align=left;" vertex="1" parent="4lrFbegZ2ahOl5D23bYF-112">
          <mxGeometry width="480" height="30" as="geometry" />
        </mxCell>
        <mxCell id="4lrFbegZ2ahOl5D23bYF-121" value="" style="group" connectable="0" vertex="1" parent="1">
          <mxGeometry x="70" y="1330" width="720" height="70" as="geometry" />
        </mxCell>
        <mxCell id="4lrFbegZ2ahOl5D23bYF-122" value="" style="group" connectable="0" vertex="1" parent="4lrFbegZ2ahOl5D23bYF-121">
          <mxGeometry y="30" width="720" height="40" as="geometry" />
        </mxCell>
        <mxCell id="4lrFbegZ2ahOl5D23bYF-123" value="" style="group" connectable="0" vertex="1" parent="4lrFbegZ2ahOl5D23bYF-122">
          <mxGeometry width="360" height="40" as="geometry" />
        </mxCell>
        <mxCell id="4lrFbegZ2ahOl5D23bYF-124" value="&lt;u&gt;transaction_id&lt;/u&gt;" style="rounded=0;whiteSpace=wrap;html=1;" vertex="1" parent="4lrFbegZ2ahOl5D23bYF-123">
          <mxGeometry width="120" height="40" as="geometry" />
        </mxCell>
        <mxCell id="4lrFbegZ2ahOl5D23bYF-125" value="Phone_no" style="rounded=0;whiteSpace=wrap;html=1;" vertex="1" parent="4lrFbegZ2ahOl5D23bYF-123">
          <mxGeometry x="120" width="120" height="40" as="geometry" />
        </mxCell>
        <mxCell id="4lrFbegZ2ahOl5D23bYF-126" value="company_name" style="rounded=0;whiteSpace=wrap;html=1;" vertex="1" parent="4lrFbegZ2ahOl5D23bYF-123">
          <mxGeometry x="240" width="120" height="40" as="geometry" />
        </mxCell>
        <mxCell id="4lrFbegZ2ahOl5D23bYF-129" value="Mobile_wallet" style="rounded=0;whiteSpace=wrap;html=1;align=left;" vertex="1" parent="4lrFbegZ2ahOl5D23bYF-121">
          <mxGeometry width="360" height="30" as="geometry" />
        </mxCell>
        <mxCell id="4lrFbegZ2ahOl5D23bYF-130" style="edgeStyle=orthogonalEdgeStyle;rounded=0;orthogonalLoop=1;jettySize=auto;html=1;entryX=0;entryY=0.5;entryDx=0;entryDy=0;fillColor=#76608a;strokeColor=#432D57;" edge="1" parent="1" source="4lrFbegZ2ahOl5D23bYF-115" target="4lrFbegZ2ahOl5D23bYF-105">
          <mxGeometry relative="1" as="geometry">
            <Array as="points">
              <mxPoint x="50" y="1270" />
              <mxPoint x="50" y="1149" />
            </Array>
          </mxGeometry>
        </mxCell>
        <mxCell id="4lrFbegZ2ahOl5D23bYF-131" style="edgeStyle=orthogonalEdgeStyle;rounded=0;orthogonalLoop=1;jettySize=auto;html=1;entryX=0;entryY=0.25;entryDx=0;entryDy=0;fillColor=#fa6800;strokeColor=#C73500;" edge="1" parent="1" source="4lrFbegZ2ahOl5D23bYF-124" target="4lrFbegZ2ahOl5D23bYF-105">
          <mxGeometry relative="1" as="geometry">
            <Array as="points">
              <mxPoint x="40" y="1380" />
              <mxPoint x="40" y="1139" />
              <mxPoint x="70" y="1139" />
            </Array>
          </mxGeometry>
        </mxCell>
        <mxCell id="4lrFbegZ2ahOl5D23bYF-132" value="" style="group" connectable="0" vertex="1" parent="1">
          <mxGeometry x="970" y="500" width="720" height="70" as="geometry" />
        </mxCell>
        <mxCell id="4lrFbegZ2ahOl5D23bYF-133" value="" style="group" connectable="0" vertex="1" parent="4lrFbegZ2ahOl5D23bYF-132">
          <mxGeometry y="30" width="720" height="40" as="geometry" />
        </mxCell>
        <mxCell id="4lrFbegZ2ahOl5D23bYF-134" value="" style="group" connectable="0" vertex="1" parent="4lrFbegZ2ahOl5D23bYF-133">
          <mxGeometry width="360" height="40" as="geometry" />
        </mxCell>
        <mxCell id="4lrFbegZ2ahOl5D23bYF-135" value="&lt;u&gt;Hall_id&lt;/u&gt;" style="rounded=0;whiteSpace=wrap;html=1;" vertex="1" parent="4lrFbegZ2ahOl5D23bYF-134">
          <mxGeometry width="120" height="40" as="geometry" />
        </mxCell>
        <mxCell id="4lrFbegZ2ahOl5D23bYF-136" value="&lt;u&gt;Hall_seat_no&lt;/u&gt;" style="rounded=0;whiteSpace=wrap;html=1;" vertex="1" parent="4lrFbegZ2ahOl5D23bYF-134">
          <mxGeometry x="120" width="120" height="40" as="geometry" />
        </mxCell>
        <mxCell id="4lrFbegZ2ahOl5D23bYF-137" value="Hall_seat_no" style="rounded=0;whiteSpace=wrap;html=1;align=left;" vertex="1" parent="4lrFbegZ2ahOl5D23bYF-132">
          <mxGeometry width="240" height="30" as="geometry" />
        </mxCell>
        <mxCell id="4lrFbegZ2ahOl5D23bYF-139" value="" style="group" connectable="0" vertex="1" parent="1">
          <mxGeometry x="970" y="960" width="720" height="70" as="geometry" />
        </mxCell>
        <mxCell id="4lrFbegZ2ahOl5D23bYF-140" value="" style="group" connectable="0" vertex="1" parent="4lrFbegZ2ahOl5D23bYF-139">
          <mxGeometry y="30" width="720" height="40" as="geometry" />
        </mxCell>
        <mxCell id="4lrFbegZ2ahOl5D23bYF-141" value="" style="group" connectable="0" vertex="1" parent="4lrFbegZ2ahOl5D23bYF-140">
          <mxGeometry width="360" height="40" as="geometry" />
        </mxCell>
        <mxCell id="4lrFbegZ2ahOl5D23bYF-142" value="&lt;u&gt;booking_id&lt;/u&gt;" style="rounded=0;whiteSpace=wrap;html=1;" vertex="1" parent="4lrFbegZ2ahOl5D23bYF-141">
          <mxGeometry width="120" height="40" as="geometry" />
        </mxCell>
        <mxCell id="4lrFbegZ2ahOl5D23bYF-143" value="&lt;u&gt;booking_seat_no&lt;/u&gt;" style="rounded=0;whiteSpace=wrap;html=1;" vertex="1" parent="4lrFbegZ2ahOl5D23bYF-141">
          <mxGeometry x="120" width="120" height="40" as="geometry" />
        </mxCell>
        <mxCell id="4lrFbegZ2ahOl5D23bYF-144" value="Booking_seat_no" style="rounded=0;whiteSpace=wrap;html=1;align=left;" vertex="1" parent="4lrFbegZ2ahOl5D23bYF-139">
          <mxGeometry width="240" height="30" as="geometry" />
        </mxCell>
        <mxCell id="4lrFbegZ2ahOl5D23bYF-145" style="edgeStyle=orthogonalEdgeStyle;rounded=0;orthogonalLoop=1;jettySize=auto;html=1;entryX=0.75;entryY=1;entryDx=0;entryDy=0;fillColor=#f5f5f5;strokeColor=#666666;gradientColor=#b3b3b3;" edge="1" parent="1" source="4lrFbegZ2ahOl5D23bYF-142" target="4lrFbegZ2ahOl5D23bYF-94">
          <mxGeometry relative="1" as="geometry">
            <Array as="points">
              <mxPoint x="1030" y="1070" />
              <mxPoint x="160" y="1070" />
            </Array>
          </mxGeometry>
        </mxCell>
        <mxCell id="4lrFbegZ2ahOl5D23bYF-146" style="edgeStyle=orthogonalEdgeStyle;rounded=0;orthogonalLoop=1;jettySize=auto;html=1;entryX=0.867;entryY=1;entryDx=0;entryDy=0;entryPerimeter=0;fillColor=#a0522d;strokeColor=#6D1F00;" edge="1" parent="1" source="4lrFbegZ2ahOl5D23bYF-135" target="4lrFbegZ2ahOl5D23bYF-63">
          <mxGeometry relative="1" as="geometry">
            <Array as="points">
              <mxPoint x="1030" y="590" />
              <mxPoint x="174" y="590" />
            </Array>
          </mxGeometry>
        </mxCell>
        <mxCell id="4lrFbegZ2ahOl5D23bYF-147" style="edgeStyle=orthogonalEdgeStyle;rounded=0;orthogonalLoop=1;jettySize=auto;html=1;entryX=0.5;entryY=1;entryDx=0;entryDy=0;fillColor=#d80073;strokeColor=#A50040;" edge="1" parent="1" source="4lrFbegZ2ahOl5D23bYF-65" target="4lrFbegZ2ahOl5D23bYF-37">
          <mxGeometry relative="1" as="geometry">
            <Array as="points">
              <mxPoint x="490" y="550" />
              <mxPoint x="490" y="480" />
              <mxPoint x="130" y="480" />
            </Array>
          </mxGeometry>
        </mxCell>
        <mxCell id="4lrFbegZ2ahOl5D23bYF-149" style="edgeStyle=orthogonalEdgeStyle;rounded=0;orthogonalLoop=1;jettySize=auto;html=1;entryX=0;entryY=0.5;entryDx=0;entryDy=0;fillColor=#60a917;strokeColor=#2D7600;" edge="1" parent="1" source="4lrFbegZ2ahOl5D23bYF-37" target="4lrFbegZ2ahOl5D23bYF-1">
          <mxGeometry relative="1" as="geometry">
            <Array as="points">
              <mxPoint x="90" y="430" />
              <mxPoint x="50" y="430" />
              <mxPoint x="50" y="110" />
            </Array>
          </mxGeometry>
        </mxCell>
        <mxCell id="4lrFbegZ2ahOl5D23bYF-150" style="edgeStyle=orthogonalEdgeStyle;rounded=0;orthogonalLoop=1;jettySize=auto;html=1;fillColor=#1ba1e2;strokeColor=#006EAF;" edge="1" parent="1" source="4lrFbegZ2ahOl5D23bYF-26" target="4lrFbegZ2ahOl5D23bYF-1">
          <mxGeometry relative="1" as="geometry">
            <Array as="points">
              <mxPoint x="130" y="310" />
              <mxPoint x="60" y="310" />
              <mxPoint x="60" y="150" />
              <mxPoint x="130" y="150" />
            </Array>
          </mxGeometry>
        </mxCell>
        <mxCell id="layer" locked="0" parent="0" />
      </root>
    </mxGraphModel>
  </diagram>
</mxfile>
